<svg xmlns="http://www.w3.org/2000/svg" width="31" height="30.849" viewBox="0 0 31 30.849">
  <path id="Icon_metro-instagram" data-name="Icon metro-instagram" d="M28.424,1.928H7.717A5.149,5.149,0,0,0,2.571,7.049V27.655a5.149,5.149,0,0,0,5.146,5.121H28.424a5.149,5.149,0,0,0,5.146-5.121V7.049a5.149,5.149,0,0,0-5.146-5.121Zm-15.93,13.5H23.647a5.824,5.824,0,0,1,.327,1.928,5.9,5.9,0,0,1-11.807,0,5.824,5.824,0,0,1,.327-1.928Zm17.2,0V26.992a1.938,1.938,0,0,1-1.937,1.928H8.383a1.938,1.938,0,0,1-1.938-1.928V15.424H9.476a8.81,8.81,0,1,0,17.189,0l3.031,0Zm0-6.75a.969.969,0,0,1-.969.964H26.789a.969.969,0,0,1-.969-.964V6.748a.969.969,0,0,1,.969-.964h1.938a.969.969,0,0,1,.969.964Z" transform="translate(-2.571 -1.928)" fill="#fff"/>
</svg>
